# xmcd
#
# Track frame offsets:
#	150
#	16643
#	43439
#	69623
#	83094
#	101262
#	121907
#	150050
#	168252
#	193563
#
# Disc length: 2793 seconds
# Revision: 1
# Processed by: cddbd v1.5.2PL0 Copyright (c) Steve Scherf et al.
# Submitted via: dBpowerAMP V12.0
#
DISCID=6b0ae70a
DTITLE=John Verity - My Religion
DYEAR=2016
DGENRE=Blues
TTITLE0=My Religion
TTITLE1=Hope For The Best
TTITLE2=The Devil's Music
TTITLE3=Going Down
TTITLE4=Chain Of Fools
TTITLE5=Cocaine
TTITLE6=Prove Your Love
TTITLE7=Spoonful
TTITLE8=Farkhunda
TTITLE9=Oh Why?
EXTD=
EXTT0=
EXTT1=
EXTT2=
EXTT3=
EXTT4=
EXTT5=
EXTT6=
EXTT7=
EXTT8=
EXTT9=
PLAYORDER=
